<svg width="55" height="60" viewBox="0 0 55 60" fill="none" xmlns="http://www.w3.org/2000/svg">
<g id="Frame" clip-path="url(#clip0_1_50)">
<g id="Group">
<g id="Group_2">
<path id="Vector" d="M19.0555 48.1936C20.1893 48.7848 21.5966 48.3569 22.1948 47.2365C22.7931 46.1161 22.3601 44.7283 21.2263 44.1343C20.2947 43.6473 19.1865 43.8585 18.4857 44.5679L20.3773 45.7248C20.6223 45.8515 20.7163 46.1527 20.5853 46.3976C20.4542 46.6426 20.1494 46.7326 19.9044 46.606L17.8732 45.7136C17.6767 46.682 18.1239 47.7066 19.0555 48.1936Z" fill="#2AAA94"/>
<path id="Vector_2" d="M20.42 46.3103C20.4998 46.1583 20.4428 45.9725 20.289 45.8937C20.1352 45.8121 19.9471 45.8712 19.8674 46.0232C19.7876 46.1752 19.8446 46.361 19.9984 46.4398C20.1494 46.5187 20.3374 46.4595 20.42 46.3103Z" fill="#2AAA94"/>
</g>
<path id="Vector_3" d="M24.7104 31.3342H1.35032C0.606791 31.3342 0 31.9366 0 32.6714V44.306C0 45.0407 0.527025 45.9415 1.17085 46.3103L18.3804 56.1292L24.8955 59.8451C25.5394 60.2138 26.0664 59.9126 26.0664 59.1779V45.1111V32.677C26.0635 31.9367 25.4567 31.3342 24.7104 31.3342ZM23.6592 46.4342L23.286 46.5214C23.2603 46.7466 23.209 46.9718 23.1321 47.1914L23.4284 47.4307C23.4854 47.4785 23.5053 47.5686 23.4683 47.6334L23.2404 48.0584C23.2062 48.1232 23.1207 48.1598 23.0495 48.1373L22.682 48.0303C22.5424 48.2161 22.3829 48.385 22.2091 48.5342L22.3459 48.8889C22.3715 48.9564 22.343 49.0437 22.2803 49.0831L21.8701 49.3365C21.8074 49.3759 21.7163 49.3646 21.665 49.3111L21.4001 49.0353C21.1864 49.1254 20.9642 49.1957 20.7363 49.238L20.6736 49.6124C20.6622 49.6855 20.5939 49.7475 20.5169 49.7503L20.0327 49.7672C19.9586 49.77 19.8845 49.7137 19.8674 49.6405L19.7763 49.2745C19.5484 49.2492 19.3205 49.1985 19.0983 49.1225L18.8561 49.4153C18.8105 49.4716 18.7165 49.4913 18.651 49.4575L18.2208 49.2323C18.1553 49.1985 18.1211 49.1113 18.1411 49.0437L18.2493 48.6806C18.0613 48.5426 17.8904 48.385 17.7394 48.2133L17.3804 48.3484C17.3121 48.3765 17.2209 48.3456 17.1839 48.2837L16.9275 47.8783C16.8876 47.8164 16.899 47.7235 16.9531 47.6756L17.2294 47.4166C17.1383 47.2055 17.0699 46.9859 17.0243 46.7607L16.6454 46.7016C16.5714 46.6903 16.5087 46.62 16.5087 46.5468L16.4888 46.0682C16.4859 45.995 16.5429 45.9218 16.6141 45.9049L16.9873 45.8177C17.0044 45.6685 17.0357 45.5221 17.0756 45.3757L14.6399 44.306C14.3778 44.6551 14.0815 44.9675 13.7568 45.2434L14.0103 45.9021C14.0588 46.0316 14.0046 46.1949 13.8878 46.2653L13.1215 46.741C13.0047 46.8142 12.8309 46.7917 12.7369 46.6931L12.2441 46.178C11.8481 46.3469 11.4322 46.4736 11.0077 46.5552L10.8938 47.2533C10.871 47.3885 10.7399 47.5039 10.6032 47.5067L9.70011 47.5405C9.56052 47.5461 9.42093 47.4391 9.38959 47.3068L9.22436 46.62C8.7999 46.5721 8.37543 46.4792 7.9595 46.3356L7.5094 46.8846C7.42108 46.9887 7.25016 47.0253 7.12766 46.9606L6.32715 46.5439C6.20465 46.4792 6.13628 46.3216 6.17616 46.1893L6.37843 45.5108C6.02518 45.2518 5.70896 44.9591 5.42693 44.6382L4.76032 44.8887C4.63212 44.9366 4.46405 44.8831 4.39283 44.7677L3.91138 44.0104C3.83731 43.895 3.8601 43.7233 3.95981 43.6304L4.48114 43.1434C4.31021 42.7493 4.18202 42.3411 4.0994 41.9188L3.3929 41.8062C3.25616 41.7837 3.13936 41.6542 3.13651 41.5191L3.10233 40.6267C3.09663 40.4888 3.20203 40.3508 3.33593 40.3199L4.03103 40.1566C4.07946 39.7372 4.17347 39.3177 4.31876 38.9067L3.76609 38.4619C3.65784 38.3747 3.62365 38.2058 3.68918 38.0875L4.1108 37.2965C4.17347 37.1755 4.33585 37.1079 4.46974 37.1473L5.15345 37.3472C5.41554 36.9981 5.71181 36.6856 6.03657 36.407L5.78303 35.7454C5.7346 35.6187 5.78873 35.4526 5.90553 35.3823L6.67185 34.9065C6.78865 34.8362 6.96243 34.8559 7.05644 34.9544L7.54928 35.4667C7.94526 35.2978 8.36118 35.1711 8.7885 35.0895L8.90245 34.3914C8.92524 34.2563 9.05629 34.1436 9.19303 34.138L10.0961 34.1042C10.2357 34.0986 10.3724 34.2028 10.4038 34.3379L10.5718 35.0248C10.9963 35.0726 11.4208 35.1655 11.8367 35.3091L12.2868 34.763C12.3751 34.6588 12.546 34.6222 12.6685 34.687L13.4691 35.1036C13.5915 35.1683 13.6599 35.326 13.62 35.4583L13.4149 36.1339C13.7682 36.3929 14.0844 36.6856 14.3664 37.0066L15.033 36.756C15.1128 36.7251 15.2011 36.7448 15.278 36.7842C15.3265 36.8095 15.372 36.832 15.4005 36.8771L15.882 37.6343C15.956 37.7497 15.9333 37.9214 15.8335 38.0143L15.3122 38.5014C15.486 38.8955 15.6142 39.3036 15.694 39.7231L16.4005 39.8357C16.5372 39.8582 16.6511 39.9877 16.6568 40.1228L16.691 41.0152C16.6967 41.1503 16.5913 41.2911 16.4546 41.322L15.7595 41.4853C15.711 41.9047 15.617 42.3214 15.4717 42.7324L17.7508 44.1258C17.8505 44.0132 17.9473 43.895 18.0584 43.7993L17.9217 43.4446C17.8961 43.377 17.9246 43.2898 17.9872 43.2503L18.3974 42.9942C18.4601 42.9548 18.5541 42.966 18.6054 43.0195L18.8703 43.2926C19.084 43.2025 19.3062 43.1349 19.5341 43.0927L19.5968 42.7183C19.6082 42.6451 19.6794 42.586 19.7506 42.5804L20.2349 42.5635C20.309 42.5607 20.3831 42.617 20.4001 42.6873L20.4885 43.0533C20.7164 43.0786 20.9443 43.1293 21.1665 43.2053L21.4086 42.9125C21.457 42.8562 21.5482 42.8365 21.6137 42.8731L22.041 43.0955C22.1066 43.1293 22.1436 43.2166 22.1208 43.2841L22.0126 43.6473C22.2006 43.7852 22.3715 43.9428 22.5196 44.1146L22.8786 43.9794C22.947 43.9541 23.0381 43.9823 23.0752 44.0442L23.3315 44.4496C23.3714 44.5115 23.36 44.6044 23.3059 44.6551L23.0267 44.914C23.1207 45.1252 23.1891 45.3447 23.2318 45.5699L23.6107 45.6291C23.6819 45.6403 23.7446 45.7107 23.7475 45.7839L23.7674 46.2624C23.7873 46.3413 23.7304 46.4173 23.6592 46.4342Z" fill="#2AAA94"/>
<path id="Vector_4" d="M24.8927 0.158539L1.17085 13.6905C0.527025 14.0593 0 14.9601 0 15.6948V27.3294C0 28.0641 0.60964 28.6637 1.35032 28.6637H9.64029H24.7132C25.4567 28.6637 26.0664 28.0613 26.0664 27.3294V25.1759V0.825706C26.0635 0.0909774 25.5365 -0.210233 24.8927 0.158539ZM18.01 25.8177H8.2102C6.89976 25.8177 5.71181 25.3054 4.83154 24.4778H10.0391C10.2186 24.7114 10.4892 24.8691 10.7969 24.9057C10.8425 24.9113 10.8881 24.9225 10.9336 24.9225C11.0504 24.9225 11.1587 24.9 11.2641 24.8691C11.7227 24.7283 12.0589 24.3117 12.0589 23.8106C12.0589 23.1969 11.5547 22.6987 10.9336 22.6987C10.5661 22.6987 10.2442 22.876 10.0363 23.1434H3.83161C3.50116 22.4903 3.30744 21.7556 3.30744 20.9758C3.30744 20.3228 3.44133 19.7034 3.67778 19.1348H10.0363C10.2414 19.405 10.5661 19.5796 10.9336 19.5796C11.5575 19.5796 12.0589 19.0813 12.0589 18.4676C12.0589 17.8539 11.5547 17.3557 10.9336 17.3557C10.5661 17.3557 10.2442 17.533 10.0363 17.8005H4.51532C5.20473 17.0179 6.14198 16.4549 7.20742 16.2353C8.31275 14.1296 10.5405 12.6883 13.1073 12.6883C15.1954 12.6883 17.0585 13.6426 18.275 15.129H13.2924C13.0873 14.8587 12.7626 14.6842 12.3979 14.6842C11.7769 14.6842 11.2726 15.1825 11.2726 15.7961C11.2726 16.4098 11.7769 16.9081 12.3979 16.9081C12.7654 16.9081 13.0873 16.7307 13.2924 16.4633H19.7848C21.4599 17.108 22.6849 18.6365 22.8786 20.4691H13.2924C13.0873 20.2017 12.7626 20.0244 12.3979 20.0244C11.7769 20.0244 11.2726 20.5226 11.2726 21.1391C11.2726 21.7528 11.7769 22.2511 12.3979 22.2511C12.7654 22.2511 13.0873 22.0737 13.2924 21.8063H22.8302C22.4313 24.0865 20.4286 25.8177 18.01 25.8177Z" fill="#04016C"/>
<path id="Vector_5" d="M53.6625 13.6898L29.9378 0.157806C29.294 -0.210966 28.767 0.0902449 28.767 0.824973V27.3287C28.767 28.0634 29.3738 28.663 30.1201 28.663H42.1249H53.4802C54.2237 28.663 54.8333 28.0606 54.8333 27.3287V27.0218V15.6941C54.8305 14.9593 54.3035 14.0585 53.6625 13.6898ZM45.8597 15.1142L48.0988 13.8361C48.2128 13.7714 48.3581 13.808 48.4236 13.9234C48.4891 14.036 48.4521 14.1796 48.3381 14.2471L46.099 15.5252C46.0619 15.5449 46.0221 15.5561 45.9793 15.5561C45.8996 15.5561 45.8169 15.5139 45.7742 15.4379C45.7058 15.3225 45.7457 15.1789 45.8597 15.1142ZM43.6006 13.0564L44.8939 10.8437C44.9595 10.7311 45.1047 10.6917 45.2187 10.7565C45.3326 10.8212 45.3725 10.9648 45.307 11.0774L44.0137 13.29C43.9709 13.366 43.8883 13.4083 43.8085 13.4083C43.7687 13.4083 43.7288 13.397 43.6889 13.3773C43.5749 13.3125 43.5351 13.169 43.6006 13.0564ZM40.6037 9.83314C40.6037 9.70364 40.7119 9.59667 40.843 9.59667C40.9769 9.59667 41.0823 9.70364 41.0823 9.83314V12.3864C41.0823 12.5159 40.9769 12.6229 40.843 12.6229C40.7119 12.6229 40.6037 12.5159 40.6037 12.3864V9.83314ZM36.4644 10.7565C36.5783 10.6917 36.7236 10.7283 36.7891 10.8437L38.0825 13.0564C38.148 13.169 38.1081 13.3125 37.9942 13.3773C37.9571 13.3998 37.9144 13.4083 37.8745 13.4083C37.7919 13.4083 37.7121 13.366 37.6666 13.29L36.3732 11.0774C36.3134 10.9676 36.3533 10.8212 36.4644 10.7565ZM33.3507 14.2443C33.2367 14.1796 33.1968 14.0332 33.2623 13.9206C33.3279 13.808 33.4732 13.7714 33.5871 13.8333L35.8263 15.1114C35.9402 15.1761 35.9801 15.3197 35.9146 15.4323C35.8718 15.5083 35.7921 15.5505 35.7066 15.5505C35.6667 15.5505 35.6268 15.5421 35.587 15.5195L33.3507 14.2443ZM40.9341 27.5651C40.9113 27.5651 40.8914 27.568 40.8686 27.568C40.0596 27.568 39.1365 27.1907 39.1365 26.6249H39.9143H42.5978C42.6007 27.1767 41.7261 27.5454 40.9341 27.5651ZM43.2245 26.0084C43.2245 26.1632 43.0878 26.2927 42.914 26.2927H39.5553H38.769C38.5981 26.2927 38.4585 26.1661 38.4585 26.0084V25.8198C38.4585 25.6734 38.5839 25.5524 38.7434 25.5411C38.752 25.5411 38.7605 25.5355 38.769 25.5355H42.914C43.0878 25.5355 43.2245 25.6622 43.2245 25.8198V26.0084ZM45.307 20.8034C44.0421 23.0554 43.706 22.6022 43.5009 23.8268C43.4524 24.1026 43.404 24.3222 43.3356 24.4939C43.4325 24.5446 43.498 24.6319 43.498 24.7332V24.9218C43.498 25.0795 43.3442 25.2061 43.1505 25.2061H38.5326C38.4386 25.2061 38.3531 25.1752 38.2933 25.1245C38.2876 25.1217 38.2876 25.1189 38.2848 25.116L38.2648 25.0963V25.0935C38.2192 25.0457 38.1879 24.9866 38.1879 24.9218V24.7332C38.1879 24.6319 38.2534 24.5446 38.3503 24.4939C38.2848 24.3222 38.2335 24.1054 38.185 23.8268C37.9771 22.6022 37.6438 23.0554 36.3789 20.8034C35.9544 20.0461 35.6924 19.1876 35.6924 18.2614C35.6924 15.4492 37.9999 13.1718 40.843 13.1718C43.0451 13.1718 44.9224 14.5399 45.6574 16.4626C45.8711 17.0228 45.9964 17.628 45.9964 18.2614C45.9936 19.1876 45.7315 20.049 45.307 20.8034Z" fill="#2AAA94"/>
<path id="Vector_6" opacity="0.2" d="M22.833 21.8082C22.4342 24.0856 20.4286 25.8197 18.01 25.8197H8.2102C6.89976 25.8197 5.71182 25.3073 4.83154 24.4797L9.64029 28.6657H24.7132C25.4567 28.6657 26.0664 28.0633 26.0664 27.3314V25.1779L22.8359 21.8054L22.833 21.8082Z" fill="#2AAA94"/>
<path id="Vector_7" d="M30.8608 39.4783L30.8635 39.4839C30.8635 39.4811 30.8608 39.4811 30.8608 39.4783Z" fill="#2AAA94"/>
<path id="Vector_8" opacity="0.2" d="M30.8608 39.4783L30.8635 39.4839C30.8635 39.4811 30.8608 39.4811 30.8608 39.4783Z" fill="#2AAA94"/>
<path id="Vector_9" d="M53.4802 31.3342H30.1201C29.3766 31.3342 28.767 31.9366 28.767 32.6714V59.1751C28.767 59.9098 29.294 60.211 29.9378 59.8423L36.3447 56.1855L39.3075 54.4965L44.8711 51.3239L53.6625 46.3103C53.7565 46.2568 53.8477 46.1893 53.936 46.1132C54.4488 45.6769 54.8305 44.9337 54.8305 44.306V42.3889V32.6714C54.8305 31.9366 54.2237 31.3342 53.4802 31.3342ZM46.8681 45.6488C46.8681 46.6988 44.2131 47.5461 40.9341 47.5461C37.658 47.5461 35.0001 46.696 35.0001 45.6488V41.5979L40.2931 42.9013C40.504 42.9519 40.7176 42.9801 40.9341 42.9801C41.1506 42.9801 41.3643 42.9548 41.5751 42.9013L46.8681 41.5979V45.6488ZM50.6143 39.8948L49.8081 40.0919V45.2012C50.0075 45.4151 50.1328 45.7276 50.1328 46.0766C50.1328 46.7185 49.7055 47.2421 49.1814 47.2421C48.6572 47.2421 48.2299 46.7213 48.2299 46.0766C48.2299 45.7276 48.3552 45.4123 48.5546 45.2012V40.4015L46.8681 40.8153L41.4526 42.1497C41.2817 42.1919 41.1108 42.2144 40.9341 42.2144C40.7603 42.2144 40.5866 42.1919 40.4185 42.1497L35.0001 40.8153L31.254 39.8948C31.1486 39.8695 31.0716 39.8075 31.0033 39.7343C30.9406 39.664 30.8922 39.5795 30.8637 39.4838L30.8608 39.4782C30.7697 39.1432 30.9007 38.7237 31.2511 38.6365L40.4156 36.376C40.5866 36.3309 40.7603 36.3112 40.9313 36.3112C41.1051 36.3112 41.2788 36.3338 41.4498 36.376L50.6143 38.6365C50.7938 38.6815 50.9077 38.8138 50.9732 38.9743C51.11 39.3205 50.9932 39.7991 50.6143 39.8948Z" fill="#04016C"/>
<path id="Vector_10" opacity="0.2" d="M50.9733 38.9773C51.11 39.3207 50.9961 39.7993 50.6143 39.895L49.8081 40.0921V45.2014C50.0075 45.4153 50.1329 45.7278 50.1329 46.0769C50.1329 46.7187 49.7056 47.2423 49.1814 47.2423C48.6572 47.2423 48.2299 46.7215 48.2299 46.0769C48.2299 45.7278 48.3552 45.4125 48.5547 45.2014V40.4017L46.8682 40.8155L41.4526 42.1499C41.2817 42.1921 41.1108 42.2146 40.9342 42.2146C40.7604 42.2146 40.5866 42.1921 40.4185 42.1499L35.0001 40.8155L31.254 39.895C31.1486 39.8697 31.0717 39.8077 31.0033 39.7345L39.3075 54.4967L44.8712 51.3241L53.6625 46.3105C53.7565 46.257 53.8477 46.1895 53.936 46.1134L50.979 38.9801H50.9733V38.9773ZM46.8682 45.649C46.8682 46.699 44.2131 47.5463 40.9342 47.5463C37.6581 47.5463 35.0001 46.6962 35.0001 45.649V41.5981L40.2932 42.9015C40.504 42.9521 40.7176 42.9803 40.9342 42.9803C41.1507 42.9803 41.3643 42.955 41.5751 42.9015L46.8682 41.5981V45.649Z" fill="#2AAA94"/>
<g id="Group_3">
<path id="Vector_11" d="M9.41237 40.5593C9.26708 40.8295 9.37248 41.1645 9.64597 41.3081C9.91945 41.4517 10.2585 41.3475 10.4037 41.0773C10.549 40.807 10.4436 40.472 10.1701 40.3285C9.89666 40.1849 9.55765 40.2891 9.41237 40.5593Z" fill="#2AAA94"/>
<path id="Vector_12" d="M13.1614 43.6418L9.30414 41.9471C8.67171 41.6177 8.43242 40.8436 8.76572 40.2215C9.09903 39.5993 9.8796 39.3601 10.512 39.6894L14.1015 41.8852C14.5943 40.0075 13.7454 37.9751 11.9336 37.032C9.81692 35.9257 7.19319 36.7252 6.07362 38.8168C4.95405 40.9083 5.7631 43.501 7.87975 44.6073C9.69158 45.5504 11.868 45.0999 13.1614 43.6418Z" fill="#2AAA94"/>
</g>
<path id="Vector_13" opacity="0.2" d="M15.2894 36.7787C15.3378 36.8041 15.3834 36.8266 15.4119 36.8716L15.8934 37.6289C15.9674 37.7443 15.9446 37.916 15.8449 38.0089L15.3236 38.4959C15.4974 38.89 15.6256 39.2982 15.7053 39.7176L16.4118 39.8302C16.5486 39.8528 16.6625 39.9822 16.6682 40.1174L16.7024 41.0097C16.7081 41.1449 16.6027 41.2856 16.466 41.3166L15.7709 41.4799C15.7224 41.8993 15.6284 42.3159 15.4831 42.7269L17.7622 44.1204C17.8619 44.0078 17.9587 43.8895 18.0698 43.7938L17.9331 43.4391C17.9074 43.3716 17.9359 43.2843 17.9986 43.2449L18.4088 42.9887C18.4715 42.9493 18.5655 42.9606 18.6168 43.0141L18.8817 43.2871C19.0954 43.197 19.3176 43.1295 19.5455 43.0873L19.6082 42.7128C19.6196 42.6397 19.6908 42.5805 19.762 42.5749L20.2463 42.558C20.3204 42.5552 20.3944 42.6115 20.4115 42.6819L20.4998 43.0478C20.7277 43.0732 20.9556 43.1238 21.1778 43.1999L21.42 42.9071C21.4684 42.8508 21.5596 42.8311 21.6251 42.8677L22.0524 43.0901C22.1179 43.1238 22.155 43.2111 22.1322 43.2787L22.0239 43.6418C22.212 43.7798 22.3829 43.9374 22.531 44.1091L22.89 43.974C22.9583 43.9487 23.0495 43.9768 23.0865 44.0387L23.3429 44.4441C23.3828 44.506 23.3714 44.5989 23.3173 44.6496L23.0381 44.9086C23.1321 45.1197 23.2005 45.3393 23.2432 45.5645L23.6221 45.6236C23.6933 45.6349 23.756 45.7052 23.7588 45.7784L23.7788 46.257C23.7816 46.3302 23.7247 46.4034 23.6534 46.4203L23.2803 46.5075C23.2546 46.7327 23.2033 46.9579 23.1264 47.1775L23.4227 47.4168C23.4797 47.4647 23.4996 47.5547 23.4626 47.6195L23.2347 48.0446C23.2005 48.1093 23.115 48.1459 23.0438 48.1234L22.6763 48.0164C22.5367 48.2022 22.3772 48.3711 22.2034 48.5203L22.3402 48.875C22.3658 48.9426 22.3373 49.0298 22.2746 49.0692L21.8644 49.3226C21.8017 49.362 21.7106 49.3507 21.6593 49.2973L21.3944 49.0214C21.1807 49.1115 20.9585 49.1818 20.7306 49.2241L20.6679 49.5985C20.6565 49.6717 20.5882 49.7336 20.5112 49.7364L20.0269 49.7533C19.9529 49.7561 19.8788 49.6998 19.8617 49.6266L19.7705 49.2607C19.5426 49.2353 19.3147 49.1847 19.0925 49.1086L18.8504 49.4014C18.8048 49.4577 18.7108 49.4774 18.6453 49.4436L18.2151 49.2184C18.1496 49.1847 18.1154 49.0974 18.1353 49.0298L18.2436 48.6667C18.0556 48.5287 17.8847 48.3711 17.7337 48.1994L17.3747 48.3345C17.3064 48.3627 17.2152 48.3317 17.1782 48.2698L16.9218 47.8644C16.8819 47.8025 16.8933 47.7096 16.9474 47.6617L17.2237 47.4027C17.1326 47.1916 17.0642 46.972 17.0186 46.7468L16.6397 46.6877C16.5657 46.6764 16.503 46.6061 16.503 46.5329L16.4831 46.0543C16.4802 45.9811 16.5372 45.9079 16.6084 45.891L16.9816 45.8038C16.9987 45.6546 17.03 45.5082 17.0699 45.3618L14.6342 44.2921C14.3721 44.6412 14.0758 44.9536 13.7511 45.2295L14.0046 45.8882C14.053 46.0177 13.9989 46.181 13.8821 46.2514L13.1158 46.7271C12.999 46.8003 12.8252 46.7778 12.7312 46.6793L12.2384 46.1641C11.8424 46.333 11.4265 46.4597 11.002 46.5413L10.888 47.2395C10.8653 47.3746 10.7342 47.49 10.5975 47.4928L9.6944 47.5266C9.55481 47.5322 9.41522 47.4252 9.38388 47.2929L9.21865 46.6061C8.79418 46.5582 8.36972 46.4653 7.95379 46.3217L7.50369 46.8707C7.41537 46.9748 7.24445 47.0114 7.12195 46.9467L18.3632 56.1181L24.8784 59.834C25.5222 60.2028 26.0493 59.9016 26.0493 59.1668V45.1L15.278 36.7646L15.2894 36.7787Z" fill="#2AAA94"/>
<path id="Vector_14" opacity="0.2" d="M45.6546 16.4624C45.8683 17.0226 45.9936 17.6278 45.9936 18.2612C45.9936 19.1874 45.7287 20.0488 45.307 20.8032C44.0422 23.0553 43.706 22.602 43.5009 23.8266C43.4525 24.1025 43.4041 24.322 43.3357 24.4937C43.4325 24.5444 43.4981 24.6317 43.4981 24.733V24.9216C43.4981 25.0793 43.3442 25.206 43.1505 25.206H38.5326C38.4386 25.206 38.3532 25.175 38.2933 25.1243L38.7434 25.5409C38.752 25.5409 38.7605 25.5353 38.7691 25.5353H42.9141C43.0878 25.5353 43.2246 25.662 43.2246 25.8196V26.0082C43.2246 26.1631 43.0878 26.2926 42.9141 26.2926H39.5553L39.9143 26.6247H42.5978C42.5978 27.1765 41.7233 27.5453 40.9313 27.565L42.1221 28.6628H53.4774C54.2209 28.6628 54.8305 28.0604 54.8305 27.3285V27.0217L45.6546 16.4624Z" fill="#2AAA94"/>
</g>
</g>
<defs>
<clipPath id="clip0_1_50">
<rect width="54.8306" height="60" fill="white"/>
</clipPath>
</defs>
</svg>
