<svg xmlns="http://www.w3.org/2000/svg" viewBox="0 0 1440 320"><path fill="#a2d9ff" fill-opacity="1" d="M0,288L30,272C60,256,120,224,180,224C240,224,300,256,360,272C420,288,480,288,540,266.7C600,245,660,203,720,197.3C780,192,840,224,900,218.7C960,213,1020,171,1080,138.7C1140,107,1200,85,1260,69.3C1320,53,1380,43,1410,37.3L1440,32L1440,0L1410,0C1380,0,1320,0,1260,0C1200,0,1140,0,1080,0C1020,0,960,0,900,0C840,0,780,0,720,0C660,0,600,0,540,0C480,0,420,0,360,0C300,0,240,0,180,0C120,0,60,0,30,0L0,0Z"></path></svg>